<svg width="238" height="40" viewBox="0 0 238 40" fill="none" xmlns="http://www.w3.org/2000/svg">
<g clip-path="url(#clip0_201_2)">
<path d="M29.5057 4.05791C29.3814 3.70241 31.3202 2.64251 32.9284 1.95151C36.1539 0.688665 39.5892 0.047096 43.0531 0.0606097C44.1596 0.00700971 45.6905 -0.0317907 47.5323 0.0364093C47.6988 0.0422646 47.8595 0.0992906 47.9925 0.199724C48.1255 0.300158 48.2243 0.439131 48.2755 0.597719L56.4955 26.2652C56.5342 26.387 56.5434 26.5162 56.5226 26.6422C56.5017 26.7682 56.4513 26.8875 56.3754 26.9903C56.2996 27.0931 56.2005 27.1765 56.0862 27.2336C55.9719 27.2907 55.8457 27.3199 55.718 27.3189C53.0637 27.3002 50.8024 27.3536 49.0492 27.4189C46.0392 27.531 42.1652 27.6753 37.237 28.3165C32.5634 28.9245 30.5885 29.5049 30.487 29.1781C30.337 28.6949 34.397 26.6481 38.9345 25.6266C41.2415 25.1672 43.5773 24.8665 45.9254 24.7266C48.1178 24.5279 50.0172 24.4118 51.5093 24.3413C51.6334 24.3356 51.7546 24.3012 51.8633 24.241C51.972 24.1807 52.0653 24.0962 52.1359 23.9939C52.2066 23.8917 52.2527 23.7745 52.2706 23.6515C52.2885 23.5285 52.2778 23.4031 52.2393 23.2849C50.026 16.4719 47.8124 9.65894 45.5986 2.84601C45.5476 2.68777 45.4488 2.5492 45.3159 2.44931C45.183 2.34942 45.0225 2.29312 44.8563 2.28812C43.4997 2.25141 42.1422 2.29903 40.7915 2.43071C39.3655 2.56971 38.6209 2.73692 35.6933 3.25652C30.0103 4.26462 29.5596 4.21221 29.5057 4.05791ZM1.5468 27.3146C3.6835 27.2932 5.90759 27.3236 8.21229 27.4187C13.7135 27.6456 18.0223 28.1721 20.2797 28.4809C22.5568 28.7924 24.5276 29.1259 26.0997 29.417C26.2962 29.4533 26.4991 29.4154 26.6693 29.3107C26.8395 29.2059 26.9648 29.0419 27.021 28.8501C27.5621 27.0569 27.7956 25.1849 27.7118 23.3137C27.7167 22.1164 27.4295 20.936 26.8749 19.8748C26.4635 19.1453 25.9122 18.5041 25.2527 17.988C24.2122 17.2015 22.9658 16.7338 21.6647 16.6416C20.3489 16.4995 19.048 16.6907 19.0338 16.899C19.0216 17.0771 19.9601 17.1131 21.3052 17.738C22.0579 18.05 22.748 18.4956 23.3422 19.0532C24.1816 19.9427 24.7215 21.0726 24.886 22.2845C25.0547 23.5698 25.0002 24.8745 24.725 26.1412C24.6937 26.1368 21.285 25.6339 18.4593 25.2645C15.263 24.8465 13.6185 24.6314 11.4343 24.4745C10.0153 24.3726 8.1053 24.2764 5.815 24.2834C5.68718 24.2841 5.56102 24.2544 5.44687 24.1969C5.33273 24.1394 5.23383 24.0556 5.15829 23.9525C5.08275 23.8494 5.03272 23.7299 5.0123 23.6037C4.99188 23.4775 5.00164 23.3483 5.0408 23.2266C7.2482 16.4328 9.45553 9.63902 11.6628 2.84522C11.7138 2.687 11.8126 2.54843 11.9455 2.44855C12.0784 2.34866 12.2389 2.29234 12.4051 2.28731C13.7617 2.2506 15.1193 2.29823 16.47 2.42992C17.896 2.56892 18.6406 2.73611 21.5682 3.25571C27.2505 4.26411 27.7016 4.21191 27.7555 4.05751C27.8798 3.70211 25.941 2.64222 24.3328 1.95122C21.1073 0.688375 17.672 0.0468061 14.2081 0.0603198C13.1016 0.00671979 11.5707 -0.0320806 9.7288 0.0361194C9.56227 0.0419948 9.4016 0.0990174 9.26864 0.199449C9.13568 0.299882 9.03688 0.438841 8.9857 0.597414C6.24616 9.15188 3.50663 17.7064 0.767096 26.2609C0.728068 26.3829 0.718592 26.5123 0.739452 26.6387C0.760312 26.765 0.810911 26.8845 0.88707 26.9875C0.963229 27.0904 1.06277 27.1737 1.17747 27.2306C1.29218 27.2875 1.41877 27.3163 1.5468 27.3146V27.3146ZM56.6003 29.4773C56.3649 29.451 56.216 29.9005 55.8344 30.3873C55.2905 30.9665 54.6296 31.4233 53.8956 31.7273C51.963 32.6361 44.9356 32.8546 43.5196 32.9121C38.8889 33.0751 34.3163 33.9969 29.9841 35.6407C29.3861 35.8727 28.8966 36.0807 28.5633 36.2257C28.23 36.0803 27.7405 35.8727 27.1425 35.6407C22.8103 33.9969 18.2377 33.0751 13.607 32.9121C12.1914 32.8546 5.1636 32.6361 3.231 31.7273C2.49698 31.4233 1.83607 30.9665 1.2922 30.3873C0.910596 29.9009 0.762195 29.4514 0.526295 29.4773C0.219295 29.5116 0.0111948 30.3273 -0.000305176 30.9613C0.0593976 32.0364 0.500761 33.0549 1.24439 33.8336C3.02889 35.789 7.03299 35.0236 13.388 35.6463C18.0853 36.1757 22.6955 37.3038 27.1066 39.003C27.7211 39.2575 28.2239 39.4819 28.5631 39.6367V39.4307V39.6367C28.9023 39.4819 29.405 39.2575 30.0196 39.003C34.4306 37.3038 39.0409 36.1758 43.7382 35.6463C50.0932 35.0232 54.0973 35.789 55.8818 33.8336C56.6255 33.0549 57.0669 32.0364 57.1265 30.9613C57.1157 30.3272 56.9076 29.5116 56.6003 29.4773Z" fill="url(#paint0_linear_201_2)"/>
<path d="M75.8436 16.7198H83.1478V18.9185C83.1865 20.2988 82.8507 21.6637 82.1761 22.8685C81.5439 23.9524 80.6154 24.8333 79.4998 25.4076C78.2908 26.0183 76.9507 26.3241 75.5965 26.2982C74.0875 26.3306 72.5977 25.9554 71.284 25.2123C70.0405 24.4827 69.0354 23.408 68.3905 22.1185C67.6675 20.6352 67.3124 18.9995 67.3553 17.3499C67.3342 16.0606 67.5434 14.7778 67.973 13.5619C68.3484 12.5099 68.9391 11.5477 69.7074 10.7367C70.4398 9.97178 71.3259 9.37054 72.3074 8.97252C73.3285 8.56278 74.42 8.35705 75.5203 8.36701C76.458 8.35898 77.3907 8.50448 78.2815 8.79772C79.1031 9.06833 79.8716 9.4792 80.553 10.0121C81.2064 10.5253 81.7572 11.1571 82.1765 11.8744C82.6009 12.6042 82.8762 13.4109 82.9865 14.2479H79.2365C79.1276 13.856 78.9579 13.4836 78.7335 13.1444C78.5213 12.8271 78.2545 12.55 77.9455 12.326C77.6245 12.096 77.2671 11.9217 76.8883 11.8104C76.4634 11.6869 76.0226 11.6265 75.5802 11.6312C74.7487 11.6139 73.931 11.8455 73.2321 12.2962C72.5314 12.7729 71.9849 13.4436 71.6598 14.2262C71.259 15.2058 71.0674 16.2583 71.0973 17.3162C71.0685 18.3773 71.2571 19.4332 71.6515 20.4187C71.9704 21.2083 72.5159 21.8857 73.2194 22.3655C73.9331 22.8224 74.7672 23.0553 75.6144 23.0344C76.354 23.0548 77.0882 22.9017 77.758 22.5872C78.3282 22.3102 78.803 21.8696 79.1217 21.3215C79.4295 20.7631 79.5901 20.1355 79.5883 19.4978H75.8444L75.8436 16.7198ZM96.6986 19.626C96.7101 20.2449 96.5587 20.856 96.2596 21.398C95.9703 21.9123 95.542 22.3347 95.0238 22.6167C94.444 22.9083 93.8041 23.0601 93.1551 23.0601C92.5062 23.0601 91.8662 22.9083 91.2865 22.6167C90.7664 22.3357 90.3364 21.9132 90.0465 21.398C89.7471 20.8561 89.5957 20.245 89.6075 19.626V8.60602H85.9175V19.9415C85.8801 21.1044 86.1858 22.2526 86.7966 23.2429C87.4073 24.2332 88.2961 25.0218 89.3521 25.5103C90.5489 26.0359 91.8418 26.3072 93.1489 26.3072C94.456 26.3072 95.7489 26.0359 96.9458 25.5103C98.0028 25.0223 98.8928 24.2341 99.5051 23.2439C100.117 22.2537 100.425 21.1052 100.389 19.9415V8.60602H96.6992L96.6986 19.626ZM103.423 26.0601H107.113V8.60602H103.423V26.0601ZM123.856 12.646C124.532 14.1131 124.883 15.7094 124.883 17.3248C124.883 18.9402 124.532 20.5364 123.856 22.0035C123.201 23.2796 122.176 24.3283 120.916 25.0123C119.505 25.7428 117.932 26.1033 116.344 26.0601H110.156V8.60602H116.395C117.97 8.5636 119.53 8.92287 120.928 9.65001C122.182 10.3329 123.202 11.3767 123.856 12.646V12.646ZM121.201 17.3165C121.24 16.2341 121.047 15.1558 120.635 14.1543C120.296 13.3779 119.702 12.7405 118.951 12.3477C118.094 11.9361 117.149 11.7372 116.199 11.7677H113.846V22.8977H116.19C117.143 22.9282 118.089 22.7279 118.947 22.3137C119.7 21.9187 120.295 21.2784 120.635 20.4988C121.048 19.4905 121.241 18.4055 121.201 17.3165V17.3165ZM127.61 26.0601H131.3V8.60602H127.61V26.0601ZM145.269 19.584H145.116L137.582 8.60602H134.343V26.0601H138.033V15.0746H138.161L145.754 26.0599H148.942V8.60602H145.269L145.269 19.584ZM160.167 19.4981H163.91C163.912 20.1359 163.751 20.7635 163.443 21.3218C163.124 21.8698 162.65 22.3105 162.079 22.5875C161.41 22.9019 160.676 23.0551 159.936 23.0347C159.089 23.0558 158.255 22.8228 157.541 22.3658C156.838 21.8861 156.292 21.2087 155.973 20.419C155.579 19.4334 155.391 18.3776 155.419 17.3165C155.389 16.2586 155.581 15.2061 155.982 14.2265C156.307 13.4438 156.853 12.7729 157.554 12.2965C158.253 11.8458 159.07 11.6142 159.902 11.6315C160.344 11.6269 160.785 11.6873 161.21 11.8107C161.589 11.922 161.946 12.0963 162.267 12.3263C162.576 12.5503 162.843 12.8274 163.055 13.1447C163.279 13.484 163.449 13.8563 163.558 14.2482H167.308C167.198 13.4113 166.922 12.6045 166.498 11.8747C166.078 11.1574 165.527 10.5256 164.874 10.0124C164.193 9.47953 163.425 9.06867 162.604 8.79802C161.713 8.50485 160.78 8.35935 159.842 8.36731C158.742 8.35738 157.65 8.56308 156.629 8.97281C155.648 9.37073 154.762 9.97199 154.029 10.737C153.261 11.5481 152.671 12.5103 152.295 13.5622C151.865 14.7781 151.656 16.0608 151.677 17.3502C151.634 18.9999 151.99 20.6355 152.713 22.1188C153.358 23.4084 154.363 24.4831 155.606 25.2126C156.92 25.9559 158.41 26.331 159.919 26.2985C161.273 26.3243 162.613 26.0186 163.822 25.4079C164.938 24.8335 165.866 23.9526 166.498 22.8688C167.172 21.6639 167.508 20.299 167.47 18.9188V16.7201H160.166L160.167 19.4981ZM175.789 12.3008C176.49 11.8454 177.313 11.6121 178.149 11.6314C178.622 11.6273 179.092 11.6993 179.542 11.8448C179.956 11.9785 180.341 12.1864 180.68 12.4585C181.01 12.7255 181.285 13.054 181.49 13.4258C181.708 13.8265 181.85 14.2643 181.908 14.7168H185.641C185.543 13.7755 185.267 12.8615 184.827 12.0235C184.419 11.2572 183.861 10.5805 183.186 10.0335C182.5 9.48238 181.719 9.06207 180.881 8.79352C179.971 8.50254 179.02 8.35863 178.064 8.36722C176.615 8.34551 175.186 8.7088 173.923 9.42002C172.679 10.1386 171.667 11.1989 171.008 12.4751C170.302 13.9955 169.936 15.6512 169.933 17.3273C169.931 19.0034 170.293 20.6599 170.995 22.1822C171.647 23.4594 172.653 24.5218 173.892 25.2422C175.164 25.9593 176.605 26.324 178.064 26.2989C179.091 26.3148 180.112 26.1431 181.077 25.7921C181.924 25.4799 182.705 25.0115 183.379 24.4112C184.008 23.848 184.531 23.1753 184.921 22.4258C185.299 21.7043 185.543 20.9204 185.641 20.1119L181.908 20.0953C181.833 20.5341 181.678 20.9556 181.452 21.3389C181.239 21.6964 180.96 22.0102 180.63 22.2637C180.291 22.5212 179.908 22.716 179.501 22.8389C179.054 22.9731 178.59 23.0393 178.124 23.0352C177.29 23.062 176.468 22.8298 175.771 22.3705C175.075 21.9113 174.537 21.2474 174.233 20.4703C173.491 18.4615 173.49 16.2539 174.229 14.2442C174.547 13.4575 175.09 12.7817 175.789 12.3008V12.3008ZM203.253 12.4751C203.963 13.9962 204.331 15.6544 204.331 17.3331C204.331 19.0117 203.963 20.67 203.253 22.191C202.588 23.4693 201.571 24.5299 200.321 25.2466C199.04 25.9378 197.606 26.2993 196.15 26.2985C194.695 26.2976 193.262 25.9345 191.981 25.2417C190.734 24.5223 189.72 23.4603 189.058 22.1817C188.351 20.6615 187.984 19.005 187.984 17.3282C187.984 15.6513 188.351 13.9948 189.058 12.4746C189.719 11.1969 190.734 10.1363 191.981 9.41951C193.262 8.72845 194.695 8.36666 196.151 8.36666C197.607 8.36666 199.04 8.72845 200.321 9.41951C201.571 10.136 202.589 11.1967 203.253 12.4751V12.4751ZM200.59 17.3335C200.62 16.267 200.433 15.2054 200.04 14.2135C199.726 13.4323 199.188 12.7618 198.493 12.2872C197.789 11.8581 196.981 11.631 196.157 11.631C195.333 11.631 194.525 11.8581 193.822 12.2872C193.127 12.7624 192.589 13.4327 192.275 14.2135C191.543 16.2286 191.543 18.4368 192.275 20.4518C192.589 21.2326 193.127 21.903 193.822 22.3781C194.525 22.8073 195.333 23.0343 196.157 23.0343C196.981 23.0343 197.789 22.8073 198.493 22.3781C199.188 21.9035 199.726 21.233 200.04 20.4518C200.433 19.4605 200.62 18.3995 200.59 17.3335V17.3335ZM221.785 17.3165C221.829 18.9391 221.477 20.5479 220.759 22.0035C220.104 23.2793 219.079 24.3279 217.819 25.0123C216.407 25.7428 214.834 26.1033 213.245 26.0601H207.058V8.60602H213.297C214.873 8.56361 216.433 8.92287 217.831 9.65001C219.085 10.3332 220.105 11.3768 220.759 12.646C221.477 14.0957 221.829 15.6993 221.785 17.3165V17.3165ZM218.103 17.3165C218.142 16.2341 217.949 15.1559 217.537 14.1543C217.198 13.3779 216.604 12.7405 215.853 12.3477C214.996 11.9361 214.051 11.7371 213.1 11.7677H210.748V22.8977H213.092C214.044 22.9281 214.991 22.7278 215.849 22.3137C216.602 21.9187 217.198 21.2784 217.537 20.4988C217.95 19.4903 218.143 18.4055 218.103 17.3165V17.3165Z" fill="url(#paint1_linear_201_2)"/>
<path d="M237.335 24.5002C237.335 24.914 237.17 25.3107 236.878 25.6033C236.585 25.8959 236.188 26.0602 235.775 26.0602H224.327V22.9476L228.191 22.9401H235.775C235.979 22.9401 236.182 22.9805 236.372 23.0589C236.561 23.1373 236.733 23.2522 236.878 23.3971C237.023 23.542 237.137 23.7139 237.216 23.9032C237.294 24.0925 237.335 24.2954 237.335 24.5002V24.5002ZM234.187 17.6519C234.204 17.2559 234.063 16.8694 233.796 16.577C233.528 16.2846 233.156 16.1102 232.76 16.0919H224.365V19.1402H232.825C233.203 19.1229 233.558 18.9565 233.814 18.6776C234.069 18.3986 234.203 18.0298 234.187 17.6519ZM235.775 9.255H228.191L224.327 9.26262V12.3751H235.775C236.188 12.3751 236.585 12.2108 236.878 11.9182C237.17 11.6256 237.335 11.2288 237.335 10.8151V10.8151C237.335 10.6102 237.294 10.4073 237.216 10.218C237.138 10.0286 237.023 9.85661 236.878 9.7117C236.733 9.56679 236.561 9.45184 236.372 9.37341C236.182 9.29498 235.98 9.25461 235.775 9.25461V9.255Z" fill="url(#paint2_linear_201_2)"/>
</g>
<defs>
<linearGradient id="paint0_linear_201_2" x1="28.5636" y1="1.94962e-05" x2="28.5636" y2="39.6367" gradientUnits="userSpaceOnUse">
<stop offset="0.0335" stop-color="#0EE6B0"/>
<stop offset="1" stop-color="#0EAFB0"/>
</linearGradient>
<linearGradient id="paint1_linear_201_2" x1="144.57" y1="8.3663" x2="144.57" y2="26.3072" gradientUnits="userSpaceOnUse">
<stop stop-color="#0EE6B0"/>
<stop offset="1" stop-color="#0EAFB0"/>
</linearGradient>
<linearGradient id="paint2_linear_201_2" x1="230.831" y1="9.25461" x2="230.831" y2="26.0602" gradientUnits="userSpaceOnUse">
<stop stop-color="#0EE6B0"/>
<stop offset="1" stop-color="#0EAFB0"/>
</linearGradient>
<clipPath id="clip0_201_2">
<rect width="237.335" height="39.6368" fill="white"/>
</clipPath>
</defs>
</svg>
